<?xml version="1.0" encoding="UTF-8" standalone="no"?>
<!DOCTYPE svg  PUBLIC '-//W3C//DTD SVG 1.1//EN'  'http://www.w3.org/Graphics/SVG/1.1/DTD/svg11.dtd'>
<svg xmlns="http://www.w3.org/2000/svg">
<defs>
<font id="NovitoNova-Regular" horiz-adv-x="60">
<font-face underline-position="-49" font-weight="400" descent="-200" panose-1="0 0 0 0 0 0 0 0 0 0" units-per-em="1000" unicode-range="U+0020-0491" bbox="-39 -138 504 794" underline-thickness="50" font-family="NovitoNova" ascent="800" cap-height="628"/>
<missing-glyph horiz-adv-x="1000"/>
<glyph glyph-name=".notdef" horiz-adv-x="1000"/>
<glyph glyph-name=".null" horiz-adv-x="0"/>
<glyph glyph-name="nonmarkingreturn" horiz-adv-x="333"/>
<glyph glyph-name="space" horiz-adv-x="210" unicode=" "/>
<glyph glyph-name="exclam" horiz-adv-x="159" unicode="!" d="M79 114q21 0 35.5 -14.5t14.5 -35.5q0 -20 -14.5 -34.5t-35.5 -14.5q-20 0 -34.5 14.5t-14.5 34.5q0 21 14.5 35.5t34.5 14.5zM112 186q0 -15 -9.5 -23.5t-22.5 -8.5t-23 8.5t-10 23.5v438q0 14 10 22.5t23 8.5t22.5 -8.5t9.5 -22.5v-438z"/>
<glyph glyph-name="quotedbl" horiz-adv-x="217" unicode='&quot;' d="M154 626q31 -2 33 -38q0 -35 -28 -72q-5 -5 -13 -5t-13 5q-12 12 0 26q8 12 13 24q-11 1 -18.5 10t-7.5 20q0 13 10 23q4 6 11 7h6h3h4zM64 626q31 -2 33 -38q0 -35 -28 -72q-5 -5 -13 -5t-13 5q-12 12 0 26q8 12 13 24q-11 1 -18.5 10t-7.5 20q0 13 10 23q4 6 11 7h6h3 h4z"/>
<glyph glyph-name="numbersign" horiz-adv-x="484" unicode="#" d="M256 310q18 66 27 100q-16 -1 -49 -1q-14 -62 -24 -91q-1 -4 -5 -14.5t-6 -16.5q9 0 25.5 -0.5t24.5 -0.5q1 4 3.5 12t3.5 12zM240 107q1 0 1 -1q0 1 -1 1zM420 481q16 0 25 -10.5t9 -24.5t-9 -24.5t-25 -10.5h-63q-13 -52 -35 -125q40 0 59 -1q16 -1 25 -11t9 -25 q0 -14 -8.5 -24t-24.5 -10h-1q-26 1 -78 1q-22 -76 -34 -114q-9 -29 -14 -40q-9 -20 -29 -20q-27 0 -37 26q-6 13 5 28v1v1q0 2 2 6.5t2 6.5q9 25 15 49q3 9 8.5 28t8.5 28q-9 0 -26.5 0.5t-26.5 0.5q-27 -87 -48 -132q-8 -18 -26 -18q-14 0 -26 11t-12 26q0 9 4 16 q16 38 35 97q-13 1 -40 1q-16 0 -25 11t-9 25t8.5 24t23.5 10h2q42 0 62 -1q18 53 23 68q9 31 14 53q-10 0 -30.5 -0.5t-30.5 -0.5q-16 0 -25 10t-9 25t9 25.5t25 10.5h77q15 61 31 98q8 17 30 17q10 0 18 -5q16 -8 16 -28q0 -12 -4 -20q-9 -22 -20 -61q8 0 25.5 0.5 t26.5 0.5q13 55 20 103q2 12 12.5 19t22.5 7q6 0 8 -1q25 -7 25 -35q0 -1 -0.5 -4t-0.5 -4q-6 -42 -15 -84h46z"/>
<glyph glyph-name="dollar" horiz-adv-x="358" unicode="$" d="M254 173q3 9 3 19q0 38 -33 71l-6 -126q29 14 36 36zM133 466q-1 -4 -1 -13q0 -37 30 -64q6 73 15 143q-37 -15 -44 -66zM292 292q36 -50 36 -102q0 -18 -4 -31q-21 -71 -99 -94q-2 -1 -5 -2t-5 -1q-1 -9 -1 -27q-1 -16 -12 -25t-25 -9q-15 0 -25 8.5t-10 24.5 q0 4 0.5 11t0.5 10q-27 3 -45 17q-47 34 -67 115q-1 3 -1 9q0 15 11.5 25t26.5 10q26 0 32 -25q18 -72 47 -79q2 59 10 182q-39 20 -57 42q-38 47 -38 102q0 19 2 28q10 66 59 103q28 20 63 23q1 3 1 8q1 11 12 18t23 7q6 0 9 -1q25 -6 25 -37v-6q-1 -2 -1 -6 q68 -52 73 -110q1 -16 -8.5 -25t-24.5 -9t-26 9t-12 25l-1 -1v3q-6 10 -9 14q-2 4 -3 5q-6 -53 -14 -154q38 -23 62 -55z"/>
<glyph glyph-name="percent" horiz-adv-x="408" unicode="%" d="M295 616q9 30 40 30q17 0 29.5 -10.5t12.5 -27.5q0 -9 -2 -14q-14 -43 -35.5 -96t-34 -81t-46 -98t-39.5 -83q-67 -140 -82 -169q-18 -34 -21 -38q-15 -23 -43 -23q-29 0 -36 30q-1 4 -1 10q0 32 32 40q-1 0 -1 0.5t-1 0.5q-8 -2 -21 -15q2 4 3 5l9 18q5 9 14.5 27 t13.5 27q40 83 77 163q8 18 34 72.5t38 81t30 70t30 80.5zM96 405q-27 0 -46.5 19t-19.5 47t19.5 47t46.5 19q28 0 47.5 -19t19.5 -47t-19.5 -47t-47.5 -19zM305 171q28 0 47.5 -19t19.5 -47t-19.5 -47t-47.5 -19q-27 0 -46.5 19t-19.5 47t19.5 47t46.5 19z"/>
<glyph glyph-name="ampersand" horiz-adv-x="394" unicode="&amp;" d="M173 88q14 5 24 14q-33 39 -65 97q-24 -40 -28 -59q-1 -3 -1 -12q0 -39 18 -48q3 -2 12 -2q15 0 40 10zM131 428q5 -42 16 -77q15 21 30 45q27 47 37 84q10 43 10 53q0 11 -4 18q-7 13 -20 13q-17 0 -37 -22t-28 -40q-6 -12 -6 -38q0 -14 2 -36zM345 74q18 -10 18 -29 q0 -15 -11.5 -27t-26.5 -12q-9 0 -17 4q-27 14 -58 40q-37 -35 -95 -43q-5 -1 -16 -1q-40 0 -69 23.5t-37 65.5q-3 15 -3 29q0 48 43 121q14 22 22 32q-17 43 -26 83q-14 62 -14 99q0 45 17 80q19 40 51.5 67.5t71.5 28.5h5q40 0 67.5 -28t27.5 -69v-9q-8 -97 -59 -176 q-10 -17 -31.5 -46.5t-26.5 -37.5q63 -139 167 -195z"/>
<glyph glyph-name="quotesingle" horiz-adv-x="127" unicode="&apos;" d="M64 626q31 -2 33 -38q0 -35 -28 -72q-5 -5 -13 -5t-13 5q-12 12 0 26q8 12 13 24q-11 1 -18.5 10t-7.5 20q0 13 10 23q4 6 11 7h6h3h4z"/>
<glyph glyph-name="parenleft" horiz-adv-x="216" unicode="(" d="M143 657q7 9 17 9t18 -9t8 -20q0 -8 -6 -17l-3 -3l-2 -3q-12 -16 -21 -33q-32 -54 -50 -115q-21 -71 -21 -155q0 -134 57 -272q2 -6 2 -8q0 -8 -6 -15t-14 -9q-2 -1 -7 -1q-18 0 -25 19q-60 142 -60 286q0 90 25 172q32 109 88 174z"/>
<glyph glyph-name="parenright" horiz-adv-x="216" unicode=")" d="M74 647q53 -62 88 -174q24 -79 24 -170q0 -144 -60 -288q-7 -18 -24 -18q-5 0 -8 1q-8 2 -14 9t-6 15q0 3 2 7q57 138 57 272q0 84 -21 155q-17 59 -49 115l-21 33l-4 4q-1 1 -1 2q-7 8 -7 18q0 11 8 19.5t19 8.5q9 0 17 -9z"/>
<glyph glyph-name="asterisk" horiz-adv-x="299" unicode="*" d="M86 409q-7 -5 -12 -5q-8 0 -14.5 6t-6.5 14q0 7 6 13q9 8 27 23.5t27 23.5q-46 12 -69 17q-14 3 -14 17q0 8 5 14.5t14 6.5q1 0 2.5 -0.5t2.5 -0.5q18 -4 52 -12q-20 30 -30 44q-4 4 -4 10q0 7 6.5 12.5t14.5 5.5q10 0 16 -9q4 -6 11.5 -16t11.5 -16q2 26 3 40 q1 18 21 18q18 0 18 -16q0 -12 -2 -34.5t-2 -29.5q15 13 43 41q6 6 13 6q8 0 14 -6t6 -14q0 -7 -6 -13q-16 -16 -48 -46l63 -18q14 -4 14 -18q0 -8 -5 -14.5t-13 -6.5q-4 0 -6 1q-9 3 -25.5 8t-24.5 7q4 -6 28 -46q3 -4 3 -10q0 -7 -6 -13t-14 -6q-10 0 -16 9 q-4 6 -12.5 19.5t-12.5 20.5q0 -8 -0.5 -23.5t-0.5 -23.5q0 -9 -6 -14t-14 -5q-19 0 -19 19q0 37 1 55q-7 -6 -20.5 -17.5t-19.5 -17.5z"/>
<glyph glyph-name="plus" horiz-adv-x="282" unicode="+" d="M228 354q23 0 23 -24q0 -25 -23 -25q-21 0 -65 2q-1 -13 -1 -39q0 -5 0.5 -15.5t0.5 -15.5q0 -21 -21 -21q-24 0 -27 24q-2 12 -2 35q0 6 0.5 17.5t0.5 17.5q-20 1 -60 1h-1q-11 0 -17 7t-6 17t6.5 17t17.5 7q5 0 15.5 0.5t16.5 0.5t16 -0.5t16 -0.5q1 16 1 47v21 q0 22 23 22q24 0 26 -24v-20q0 -33 -1 -49q40 -2 61 -2z"/>
<glyph glyph-name="comma" horiz-adv-x="137" unicode="," d="M69 80q36 -3 38 -44q0 -40 -33 -82q-4 -6 -13 -6q-10 0 -16 6t-6 15q0 7 6 15q9 12 15 27q-13 1 -21.5 11t-8.5 23q0 17 11 26q5 7 13 8q4 1 11 1h4z"/>
<glyph glyph-name="hyphen" horiz-adv-x="271" unicode="-" d="M215 355h1q12 0 18.5 -7.5t6.5 -18.5q0 -27 -26 -28q-8 0 -22.5 -0.5t-20.5 -0.5q-18 0 -54.5 1t-61.5 1q-26 0 -26 27t26 27q88 -2 107 -2q32 0 52 1z"/>
<glyph glyph-name="period" horiz-adv-x="132" unicode="." d="M30 42q0 15 10.5 25.5t25.5 10.5t25.5 -10.5t10.5 -25.5t-10.5 -25.5t-25.5 -10.5t-25.5 10.5t-10.5 25.5z"/>
<glyph glyph-name="slash" horiz-adv-x="249" unicode="/" d="M84 26q-4 -19 -25 -19q-11 0 -20 7.5t-9 18.5q0 4 1 7q1 5 3 13t3 13q76 304 128 520q6 20 25 20q11 0 20 -7.5t9 -18.5q0 -5 -1 -8q-1 -4 -3 -12.5t-3 -13.5q-22 -87 -64.5 -260.5t-63.5 -259.5z"/>
<glyph glyph-name="zero" horiz-adv-x="511" unicode="0" d="M267 73q72 14 106.5 88.5t35.5 158.5q0 49 -11 89q-14 57 -52 109.5t-88 52.5q-20 0 -40 -10q-59 -29 -87 -96.5t-28 -144.5q0 -24 3 -47q11 -95 59 -150q41 -51 88 -51q9 0 14 1zM340 619q71 -41 106 -124t35 -175v-6q0 -118 -55 -205q-60 -96 -139 -106q-18 -2 -27 -2 q-70 0 -123.5 48.5t-80.5 122.5q-26 72 -26 152q0 118 56 208q30 48 76.5 78.5t97.5 30.5q40 0 80 -22z"/>
<glyph glyph-name="one" horiz-adv-x="213" unicode="1" d="M116 627q13 16 33 16q14 0 24 -9t10 -26v-570q0 -16 -10.5 -25t-25.5 -9t-25.5 9t-10.5 25v465q-2 -3 -6.5 -8.5t-6.5 -8.5q-13 -18 -32 -18q-10 0 -18 5q-18 11 -18 33q0 10 5 16z"/>
<glyph glyph-name="two" horiz-adv-x="324" unicode="2" d="M292 452q-8 -94 -47 -169q-64 -122 -116 -209h127q16 0 25 -11t9 -25t-9 -24.5t-25 -10.5h-190q-15 0 -25 10.5t-10 24.5q0 11 5 18q43 68 127 224q44 82 54 139q8 38 8 64q0 32 -11 53q-14 29 -52 29q-15 0 -30 -5q-23 -9 -29 -42q-2 -16 -2 -34q1 -3 1 -9t1 -9v-2v-1 q1 -2 1 -6q2 -11 8 -33q2 -8 2 -11q0 -14 -11 -23t-25 -9q-25 0 -34 25q-14 46 -14 86q0 32 9 59q22 62 79 78q21 6 46 6q60 0 91 -34q38 -43 38 -120q0 -20 -1 -29z"/>
<glyph glyph-name="three" horiz-adv-x="355" unicode="3" d="M251 420q35 -42 55 -100.5t20 -115.5q0 -14 -1 -21q-5 -53 -32 -98t-74 -65q-36 -16 -75 -16q-56 0 -103 36q-11 8 -11 25t11 28q10 10 24 10q15 0 28 -10q21 -18 51 -18q24 0 47 13q60 34 60 102v6q0 96 -46 164q-24 35 -45 39q-2 1 -6 1q-15 0 -36 -21q-11 -11 -25 -11 q-15 0 -26 11t-11 27q0 10 4 18q11 23 40.5 71t41.5 75h-67q-17 0 -26 10.5t-9 25.5t9 26t26 11h121q16 0 26.5 -10.5t10.5 -25.5q0 -7 -1 -10q-15 -47 -60 -126q44 -7 79 -51z"/>
<glyph glyph-name="four" horiz-adv-x="315" unicode="4" d="M213 607q0 16 10.5 25.5t25.5 9.5t25.5 -9.5t10.5 -25.5v-566q0 -16 -11 -25t-25 -9t-25 9t-11 25v161h-147q-13 0 -24.5 10t-11.5 23q0 55 7 118t19 140t17 118q2 15 11.5 25t24.5 10q13 0 24.5 -9.5t11.5 -22.5q0 -50 -6.5 -107t-17.5 -127.5t-15 -105.5h107v333z"/>
<glyph glyph-name="five" horiz-adv-x="363" unicode="5" d="M263 415q70 -76 70 -194q0 -26 -5 -58q-9 -52 -40.5 -91.5t-80.5 -56.5q-38 -11 -75 -11q-41 0 -77 12q-25 9 -25 35q0 15 9 26t23 11q4 0 12 -2q31 -11 59 -11l43 6q65 19 80 90q5 27 5 51q0 89 -45 138q-37 40 -84 40q-24 0 -45 -10q-8 -4 -18 -4q-15 0 -25.5 9.5 t-10.5 25.5v124v64q0 14 11 24t25 10h98q17 0 26 -10.5t9 -25.5t-9 -25.5t-26 -10.5h-61q0 -68 -1 -102q10 2 30 2q76 0 128 -56z"/>
<glyph glyph-name="six" horiz-adv-x="424" unicode="6" d="M317 132q7 15 7 37q0 34 -12 58q-15 29 -41 45.5t-56 16.5q-14 0 -32 -5q-41 -12 -59 -43q-18 -30 -18 -75q0 -14 1 -21q8 -30 29 -50q28 -24 71 -24q14 0 26 3q64 13 84 58zM373 263q21 -43 21 -91q0 -94 -75 -140q-50 -31 -115 -31q-84 0 -128 54q-25 33 -35 66 q-3 5 -5 16v2q-6 29 -6 59q0 59 23 135q30 106 121 289q10 18 28 18q15 0 26.5 -11t11.5 -26q0 -9 -4 -17q-58 -117 -84 -184q-14 -36 -23 -63q16 10 35 14q28 7 49 7q51 0 95 -26t65 -71z"/>
<glyph glyph-name="seven" horiz-adv-x="398" unicode="7" d="M332 647q15 0 25.5 -11t10.5 -26q0 -8 -5 -18q-59 -99 -111 -225q-77 -185 -90 -324q-1 -16 -13 -25.5t-27 -9.5q-14 0 -23.5 8t-9.5 23q0 56 16.5 124.5t33.5 114.5t46 116q48 113 84 180q-68 1 -204 1q-17 0 -26 11t-9 26t9 25.5t26 10.5q178 0 267 -1z"/>
<glyph glyph-name="eight" horiz-adv-x="498" unicode="8" d="M249 76q62 1 105 44t43 104q0 60 -43 104t-103 44h-2q-60 -2 -104 -44t-44 -101q0 -62 42.5 -106.5t103.5 -44.5h2zM249 574q-26 -1 -46 -19.5t-20 -44.5q0 -30 20 -47.5t46 -17.5q27 0 46 17t19 48q0 26 -18.5 45t-44.5 19h-2zM468 229v-5q0 -30 -7 -54 q-19 -73 -79.5 -119t-134.5 -46q-14 0 -40 4q-76 15 -126.5 76.5t-50.5 138.5q0 8 2 26q6 52 37 97t78 71q-35 38 -35 86q0 56 39.5 98.5t94.5 42.5h3q55 -1 93 -38t43 -92v-7v-6q-5 -49 -36 -85q52 -27 84.5 -77t34.5 -111z"/>
<glyph glyph-name="nine" horiz-adv-x="426" unicode="9" d="M114 415q32 -62 99 -62q18 0 31 4q41 12 60 45q19 31 19 73v6q-3 44 -31 68q-28 25 -72 25q-14 0 -26 -3q-65 -15 -86 -59q-7 -15 -7 -38q0 -31 13 -59zM395 483q1 -8 1 -23q0 -106 -73 -241q-85 -155 -187 -209q-8 -4 -17 -4q-15 0 -26.5 12t-11.5 27q0 18 18 28 q82 43 152 167q13 23 28 52q-31 -11 -61 -11h-5q-78 0 -130.5 56t-52.5 135v10q4 71 57.5 116t126.5 47h5q61 0 106 -32t62 -87q6 -12 6 -19q1 -4 1 -12t1 -12z"/>
<glyph glyph-name="colon" horiz-adv-x="125" unicode=":" d="M63 69q13 0 22.5 -9.5t9.5 -22.5q0 -14 -9.5 -23.5t-22.5 -9.5t-23 10t-10 23t9.5 22.5t23.5 9.5zM63 327q-14 0 -23.5 9.5t-9.5 22.5t10 23t23 10t22.5 -9.5t9.5 -23.5q0 -13 -9.5 -22.5t-22.5 -9.5z"/>
<glyph glyph-name="semicolon" horiz-adv-x="136" unicode=";" d="M67 63q35 -2 37 -41q0 -41 -31 -79q-4 -6 -13 -6q-10 0 -16 6q-13 13 0 28q9 12 15 27q-12 2 -20.5 10.5t-8.5 21.5q0 16 11 25q3 7 12 8q2 0 5.5 0.5t4.5 0.5q3 0 4 -1zM71 322q-15 0 -25.5 10.5t-10.5 25.5t10.5 25.5t25.5 10.5q14 0 24.5 -10.5t10.5 -25.5 t-10.5 -25.5t-24.5 -10.5z"/>
<glyph glyph-name="less" horiz-adv-x="211" unicode="&lt;" d="M110 330q3 -3 28.5 -33t38.5 -46q4 -5 4 -11q0 -9 -12.5 -16t-28.5 -7q-19 0 -29 11q-13 15 -38.5 45t-38.5 45q-4 4 -4 10q0 7 5 15t17 21l12 13q6 8 19 23.5t20 22.5q10 11 30 11q16 0 28.5 -7t12.5 -16q0 -4 -5 -11q-10 -11 -29.5 -34.5t-29.5 -35.5z"/>
<glyph glyph-name="equal" horiz-adv-x="289" unicode="=" d="M234 293h3q22 0 22 -24t-22 -25q-33 -3 -92.5 -3.5t-83.5 -1.5h-2q-11 0 -17 7.5t-6 17.5q0 23 22 24q24 1 83.5 1.5t92.5 3.5zM228 391h3q22 0 22 -24t-22 -25q-33 -3 -92.5 -3.5t-83.5 -1.5h-2q-11 0 -17 7.5t-6 17.5q0 23 22 24q28 2 86.5 2t89.5 3z"/>
<glyph glyph-name="greater" horiz-adv-x="211" unicode="&gt;" d="M102 330q-10 11 -30 35t-30 35q-4 5 -4 11q0 9 12.5 16t28.5 7q19 0 29 -11q38 -44 40 -46q2 -3 12 -13.5t15.5 -19t5.5 -15.5t-4 -11q-12 -15 -37.5 -45t-38.5 -45q-10 -11 -30 -11q-16 0 -28.5 7t-12.5 16q0 4 5 11q34 41 67 79z"/>
<glyph glyph-name="question" horiz-adv-x="234" unicode="?" d="M204 491v-11q0 -98 -30 -167q-36 -89 -40 -135q-1 -15 -11.5 -23t-24.5 -8q-12 0 -21 7t-9 20q0 61 34 134q28 68 33 109q4 25 4 57q0 7 -0.5 20.5t-0.5 19.5q-2 44 -15 57l-3 4l-1 -1l-5 -5q-16 -20 -18 -63q-1 -15 -12 -23.5t-24 -8.5t-22 8.5t-8 23.5q3 32 10.5 58.5 t27.5 51t50 24.5h5q81 -4 81 -149zM106 100q21 0 35.5 -15t14.5 -35q0 -21 -14.5 -35.5t-35.5 -14.5q-20 0 -35 14.5t-15 35.5q0 20 15 35t35 15zM119 575l-1 -1l2 1h-1z"/>
<glyph glyph-name="at" horiz-adv-x="534" unicode="@" d="M238 285q8 -2 12 -2q23 0 33 26q-1 3 -1 8v6q0 17 -19 21q-8 2 -11 2q-13 0 -21 -16q-4 -14 -4 -29q0 -12 11 -16zM485 226q19 -10 19 -33q0 -9 -6 -17q-83 -110 -203 -110q-117 2 -195 83q-70 75 -70 172q0 48 17 90q28 69 95.5 112t143.5 43q15 0 22 -1 q78 -6 134 -54.5t56 -121.5q0 -15 -3 -30q-14 -81 -71 -110q-24 -12 -47 -12q-24 0 -46 11q-33 -40 -80 -40q-17 0 -33 6q-65 26 -65 94q0 24 9 46q12 29 37.5 47t55.5 18q15 0 27 -4q31 -9 52.5 -33.5t21.5 -56.5v-7q12 -8 17 -8q14 0 21 7q30 28 30 73q0 16 -4 28 q-9 30 -38.5 49t-64.5 24q-18 2 -28 2q-67 0 -120 -41t-64 -106q-2 -9 -2 -27q0 -51 31.5 -95.5t80.5 -66.5q37 -17 75 -17q88 0 144 73q15 18 33 18q11 0 18 -5z"/>
<glyph glyph-name="A" horiz-adv-x="342" unicode="A" d="M127 259h95q-9 101 -29 301q-34 -99 -66 -301zM312 31q0 -14 -9 -21.5t-22 -7.5q-14 0 -25 8.5t-12 23.5q-2 26 -7 79t-8 79h-112q-14 -109 -19 -158q-1 -15 -12 -23.5t-25 -8.5q-13 0 -22 7.5t-9 20.5v4q12 111 30 227q12 79 20 124t24.5 112t37.5 120q11 25 33 25h47 q14 0 23 -10t11 -24q6 -60 22 -180t25 -216t9 -181z"/>
<glyph glyph-name="B" horiz-adv-x="249" unicode="B" d="M144 92q3 15 3 34q0 25 -5 43q-7 22 -44 35v-133q8 0 12 1q11 0 21 5q11 5 13 15zM147 534q-1 25 -18 35q-15 6 -31 6v-291q34 7 46 69q7 30 7 79q0 31 -1 47q-2 36 -3 55zM206 191q7 -21 7 -57q0 -4 0.5 -13t0.5 -14q0 -24 -6 -37q-24 -66 -113 -66q-18 0 -36 3 q-11 1 -17 9q-12 9 -12 25v560q0 13 6 20q5 16 23 19t37 3q42 0 70 -18q9 -6 16.5 -14t12.5 -13.5t9 -17.5t6 -17t3.5 -20.5t2 -18.5t1.5 -21.5t1 -19.5q1 -14 1 -45q0 -141 -55 -192q32 -22 42 -55z"/>
<glyph glyph-name="C" horiz-adv-x="284" unicode="C" d="M187 174q7 24 32 24q14 0 24.5 -8.5t10.5 -22.5q0 -3 -2 -11q-2 -6 -9 -34.5t-14 -46t-17 -32.5q-27 -39 -68 -39q-22 0 -42 10q-13 6 -16 17q-19 29 -28 77q-11 47 -18 117q-10 106 -10 163q0 27 1 41q5 70 19 117q18 64 45 86q23 19 46 19q36 0 66 -39t45 -84 q2 -8 2 -10q0 -14 -10.5 -22.5t-24.5 -8.5q-25 0 -32 23q-12 38 -27 55q-11 15 -19 18l2 1q-2 0 -2 -1l-3 -3q-6 -6 -14 -24q-26 -71 -26 -154v-17q7 -133 12 -177q12 -106 31 -138q2 -1 4 -1q3 1 4 3q10 10 15 25q7 17 23 77z"/>
<glyph glyph-name="D" horiz-adv-x="285" unicode="D" d="M183 242q5 63 5 117q0 37 -1 55q-4 77 -27 121q-18 32 -42 44l-3 1q-2 1 -4 1q-4 2 -12 4h-2v-512l3 1q10 2 17 4q0 1 2 1q1 0 3.5 1.5t3.5 2.5q4 2 5 3q3 3 4 3l3 3q7 8 6 6q13 18 16 30q18 46 23 114zM193 605q62 -72 62 -232v-36q-2 -101 -12 -159q-11 -64 -33 -102 q-43 -71 -135 -71h-11q-12 2 -16 5q-18 9 -18 29v578q0 25 25 32q7 2 23 4h9q64 0 106 -48z"/>
<glyph glyph-name="E" horiz-adv-x="240" unicode="E" d="M178 74q16 0 24 -10t8 -24t-8 -23.5t-24 -9.5h-115q-13 0 -23 10t-10 24v570q0 13 10 23t23 10h115q16 0 24 -10t8 -24t-8 -23.5t-24 -9.5h-82v-257h69q15 0 23.5 -10t8.5 -24t-8 -23.5t-24 -9.5h-69v-179h82z"/>
<glyph glyph-name="F" horiz-adv-x="252" unicode="F" d="M188 585h-87v-173h73q16 0 25 -10t9 -24t-9 -24t-25 -10h-73v-306q0 -15 -10.5 -23.5t-24.5 -8.5q-15 0 -25.5 8.5t-10.5 23.5v580q0 14 10.5 24t25.5 10h122q16 0 25 -10t9 -24t-9 -23.5t-25 -9.5z"/>
<glyph glyph-name="G" horiz-adv-x="314" unicode="G" d="M283 169q1 -7 1 -21q0 -77 -44 -120q-34 -29 -73 -29q-19 0 -41 8q-6 2 -9 4q-9 5 -12 10q-56 52 -68 187q-7 79 -7 138q0 22 2 62q3 64 21 122q21 64 49 90q25 23 54 23q21 0 36 -11q47 -29 74 -110q2 -8 2 -11q0 -14 -10.5 -22t-24.5 -8q-25 0 -32 23q-12 38 -26 54 q-13 15 -20 18h-1l1 1l-1 -1q-4 -2 -5 -3q-11 -11 -18 -27q-32 -64 -32 -152v-15q3 -148 5 -171q10 -112 47 -139q8 -4 17 -4q20 0 33 21q14 24 15 49h-45q-16 0 -24 9.5t-8 23.5t8.5 24t23.5 10h78q29 0 34 -33z"/>
<glyph glyph-name="H" horiz-adv-x="271" unicode="H" d="M173 601q0 15 10 23.5t24 8.5t24 -8.5t10 -23.5v-567q0 -15 -10 -23.5t-24 -8.5t-24 8.5t-10 23.5v248h-19l-56 3v-251q0 -15 -10 -23.5t-24 -8.5t-24 8.5t-10 23.5v567q0 15 10 23.5t24 8.5t24 -8.5t10 -23.5v-248q24 -4 58 -4h17v252z"/>
<glyph glyph-name="I" horiz-adv-x="126" unicode="I" d="M30 594q0 15 10 23.5t23 8.5t23 -8.5t10 -23.5v-562q0 -15 -10 -23.5t-23 -8.5t-23 8.5t-10 23.5v562z"/>
<glyph glyph-name="J" horiz-adv-x="297" unicode="J" d="M266 267q0 -7 0.5 -21.5t0.5 -22.5q0 -142 -60 -199q-4 -7 -12 -10q-2 -3 -9 -5q-21 -8 -41 -8q-45 0 -75 34q-40 48 -40 113q0 15 1 22q5 33 34 33q12 0 22.5 -9t10.5 -21q0 -4 -1 -13t-1 -13q0 -39 19 -63q12 -17 30 -17q9 0 17 4q27 21 34 90q4 36 4 81q0 34 -1 51 q-1 35 -1 105v30q0 30 -2.5 92t-2.5 92q0 29 31 29q13 0 23.5 -8.5t11.5 -23.5q5 -59 5 -142q0 -56 -1 -83v-13q0 -17 1.5 -52t1.5 -52z"/>
<glyph glyph-name="K" horiz-adv-x="283" unicode="K" d="M329 -58q24 -6 24 -31q0 -14 -9.5 -24.5t-23.5 -10.5q-6 0 -9 1q-49 13 -76 78q-25 55 -40 131q-1 5 -7.5 40t-11.5 52t-15.5 43t-26.5 40t-37 17v-243q0 -15 -9.5 -23t-23.5 -8t-24 8t-10 23v566q0 15 10 23.5t24 8.5t23.5 -8t9.5 -24v-197q43 73 76 211q6 23 30 23 q14 0 25 -9t11 -23q0 -6 -1 -9q-41 -170 -105 -259q83 -30 118 -196q18 -90 33 -132q10 -29 24 -51q6 -8 12 -14l4 -2l2 -1h3z"/>
<glyph glyph-name="L" horiz-adv-x="260" unicode="L" d="M197 68q16 0 24.5 -10t8.5 -24t-8.5 -24t-24.5 -10h-133q-14 0 -24 10t-10 24v563q0 16 10 24.5t24 8.5t24 -8.5t10 -24.5v-529h99z"/>
<glyph glyph-name="M" horiz-adv-x="335" unicode="M" d="M242 618q6 22 31 22q13 0 22.5 -8.5t9.5 -22.5v-573q0 -14 -10 -22.5t-23 -8.5t-22.5 8.5t-9.5 22.5v353q-12 -42 -38 -126q-6 -24 -31 -24q-23 0 -31 24q-30 92 -45 139v-370q0 -14 -10 -22.5t-23 -8.5t-22.5 8.5t-9.5 22.5v577q0 14 10 22.5t23 8.5q24 0 31 -22 q10 -32 36 -113t40 -125q24 80 72 238z"/>
<glyph glyph-name="N" horiz-adv-x="291" unicode="N" d="M194 612q0 16 10 24t24 8t23.5 -8t9.5 -24v-567q0 -15 -10 -24t-24 -9q-25 0 -31 24l-99 339v-339q0 -15 -9.5 -23.5t-23.5 -8.5t-24 8.5t-10 23.5v571q0 15 10 24t24 9q25 0 31 -24l99 -339v335z"/>
<glyph glyph-name="O" horiz-adv-x="266" unicode="O" d="M169 189q16 82 16 159q0 73 -14 130q-18 79 -50 96h-1l-5 -5q-12 -19 -20 -44q-17 -60 -17 -140q0 -32 4 -98q6 -90 14 -134q10 -61 24 -86q2 0 3 -1v1h1l2 1l4 4q8 10 16 31q18 55 23 86zM245 441q5 -39 5 -93q0 -41 -2 -62q-6 -89 -19 -137q-3 -9 -8 -27t-8 -29.5 t-9.5 -26t-13.5 -25.5q-27 -39 -67 -39q-22 0 -42 10q-13 6 -16 17q-17 25 -29 81q-11 53 -16 117q-10 98 -10 152q0 16 2 48q6 83 25 134q29 71 69 79q4 1 12 1q52 0 87 -65q29 -51 40 -135z"/>
<glyph glyph-name="P" horiz-adv-x="252" unicode="P" d="M149 361q5 35 5 64q0 16 -2 50q0 4 -1 18.5t-2 18.5q-3 21 -9 31q-7 11 -22 15q-8 2 -20 4v-252h1q4 -1 13 -1q15 0 21 7q12 13 16 45zM220 469q2 -36 2 -58q0 -62 -15 -98q-18 -46 -49 -62q-18 -9 -44 -9q-11 0 -16 1v-210q0 -15 -10 -23.5t-24 -8.5t-24 8.5t-10 23.5 v563q0 21 19 30q5 2 15 4h14q87 0 118 -49q20 -31 24 -112z"/>
<glyph glyph-name="Q" horiz-adv-x="356" unicode="Q" d="M202 119q2 3 4 9q-3 4 -9 11t-9 11q-9 12 -9 25q0 14 9 23t25 9q11 0 19 -6q1 3 2.5 10t2.5 10q19 85 19 155q0 74 -21 131q-9 26 -27.5 52t-39.5 27q-15 0 -28 -16q-15 -20 -23 -43q-25 -68 -25 -155q0 -39 3 -78q4 -83 14 -133q14 -68 31 -89q10 -2 15 -2q11 0 17 5 q17 15 30 44zM351 56q5 -7 5 -17q0 -13 -10.5 -22.5t-24.5 -9.5q-18 0 -28 15q-13 20 -43 56q-14 -24 -23 -34q-30 -34 -74 -34q-18 0 -36 6q-10 2 -17 9q-30 31 -45 94q-11 49 -19 132q-6 80 -6 120q0 61 9 105q6 28 14.5 54t23 54t37 45t50.5 17q10 0 16 -1q58 -10 96 -81 q30 -56 37 -138q3 -30 3 -61q0 -116 -37 -217l-1 -1q48 -54 73 -91z"/>
<glyph glyph-name="R" horiz-adv-x="297" unicode="R" d="M136 553q-12 5 -13 5q-12 3 -24 3v-217h3q10 -2 16 -2q15 0 21 9q11 12 15 39q4 24 4 56q0 25 -3 49q-2 38 -13 53q-5 4 -6 5zM323 -64q24 -6 24 -30q0 -14 -9.5 -25.5t-24.5 -11.5q-6 0 -9 1q-49 13 -78 79q-24 54 -41 133q-2 9 -7.5 38t-10.5 47.5t-13.5 43t-22.5 40 t-32 22.5v-242q0 -15 -10.5 -23.5t-24.5 -8.5t-24 8.5t-10 23.5v556q0 11 5 18q7 23 32 24q3 0 10 0.5t10 0.5q77 0 113 -45q21 -27 25 -100q2 -30 2 -46q0 -64 -18 -105q-11 -24 -29 -38q37 -46 63 -157q18 -90 34 -134q10 -29 25 -52q5 -7 12 -13l4 -2q2 -2 5 -2z"/>
<glyph glyph-name="S" horiz-adv-x="277" unicode="S" d="M217 284q30 -60 30 -118q0 -9 -2 -29q-6 -50 -34.5 -90.5t-72.5 -40.5q-10 0 -22 3q-47 12 -66.5 56.5t-19.5 102.5q0 13 2 37q2 14 10.5 23.5t22.5 9.5q13 0 23.5 -9t10.5 -21q0 -7 -1.5 -22.5t-1.5 -23.5q0 -39 12 -62q5 -10 10 -16q2 -3 5 -5q0 -3 4 -3l5 -2q1 0 1 -1 h5h1l4 1l1 1q4 2 6 4q8 7 10 10q8 8 15 33q6 22 6 45q0 44 -21 83q-10 19 -39 62t-40 68q-36 81 -36 147q0 39 18 72t51 43q11 4 25 4q38 0 62 -27q31 -38 31 -98q0 -11 -2 -35q-4 -33 -33 -33q-12 0 -22.5 9t-10.5 21q0 6 1 18.5t1 19.5q0 15 -3 30q-3 12 -8 19l-5 5 q-6 3 -7 4h-2q-1 1 -3 0h-3h-2v-1q-1 0 -2 -1t-2 -1q-12 -13 -15 -25q-2 -7 -2 -22q0 -20 7 -48q15 -57 20 -67q12 -24 39.5 -66.5t38.5 -63.5zM141 579z"/>
<glyph glyph-name="T" horiz-adv-x="275" unicode="T" d="M242 645q16 0 24.5 -10t8.5 -24t-8.5 -24t-24.5 -10h-63v-540q0 -15 -9.5 -23t-23.5 -8t-24 8t-10 23v540h-80q-15 0 -23.5 10t-8.5 24t8.5 24t23.5 10h210z"/>
<glyph glyph-name="U" horiz-adv-x="327" unicode="U" d="M32 597q1 15 11.5 23.5t24.5 8.5q13 0 22 -7.5t9 -21.5q0 -4 -1 -12.5t-1 -12.5v-13q0 -21 1.5 -62.5t1.5 -62.5v-23q0 -15 -0.5 -45.5t-0.5 -45.5v-23q2 -81 13 -137q12 -46 18 -57q6 -12 11 -17l8 -8q3 -3 9 -7l3 -1q6 -2 8 -2h3t5 1q-1 0 -3 -1q5 0 6 1q5 3 10 9 q6 7 11 15t8 19t5.5 19t4.5 21.5t2.5 19.5t2 21.5t1.5 18.5q6 69 6 137q0 43 -6.5 128.5t-6.5 127.5q0 28 30 28q14 0 25 -8.5t12 -23.5q11 -139 12 -232v-28q0 -82 -8 -149q-11 -91 -28 -127q-6 -11 -13 -21q-29 -41 -76 -41q-56 0 -91 52q-28 42 -39 120q-10 67 -10 143 q0 19 1 58t1 59q0 13 -2 52t-2 61q0 16 2 46z"/>
<glyph glyph-name="V" horiz-adv-x="322" unicode="V" d="M259 635q12 0 22.5 -9.5t10.5 -21.5q0 -82 -11 -177t-30 -211.5t-26 -176.5q-2 -14 -11 -24t-23 -10q-3 0 -10 -0.5t-11 -0.5q-19 0 -27 6q-10 6 -19 27q-8 24 -13 54q-9 43 -35 195q-24 153 -45 306q0 2 -0.5 4t-0.5 4q0 26 24 34q2 1 7 1q12 0 22.5 -7t11.5 -18 q26 -180 40 -270q10 -64 32 -192q2 -6 2 -10q36 290 56 463q2 14 11 24t23 10z"/>
<glyph glyph-name="W" horiz-adv-x="395" unicode="W" d="M297 610q1 15 12 23.5t25 8.5t22.5 -8t7.5 -24q-4 -56 -12 -163.5t-9 -119.5q-5 -65 -17 -197q-4 -44 -7 -65q0 -1 -2 -16t-4 -22q-11 -25 -33 -25h-16q-11 0 -21 7t-11 18q-6 40 -17.5 121.5t-17.5 122.5q-6 -40 -17.5 -122t-16.5 -122q-1 -11 -11.5 -18t-21.5 -7h-16 q-21 0 -32 25q-1 3 -7 40q-1 10 -3.5 32.5t-3.5 34.5q-12 132 -17 198q-2 31 -8 88.5t-9.5 104.5t-3.5 88q0 29 31 29q14 0 24.5 -8.5t11.5 -23.5q3 -46 10 -138.5t11 -139.5q2 -16 4 -47t4 -46l39 279q1 11 14 18q3 3 9 5q3 1 9 1h1q6 0 8 -1q4 -1 10 -5q11 -6 14 -18 l39 -279q1 16 3.5 48t4.5 49q14 190 20 274z"/>
<glyph glyph-name="X" horiz-adv-x="351" unicode="X" d="M319 51q2 -6 2 -9q0 -10 -7.5 -20t-18.5 -13q-3 -1 -9 -1q-22 0 -33 25q-6 16 -32.5 83.5t-41.5 103.5q-22 -81 -53 -190q-6 -23 -31 -23q-14 0 -24.5 8.5t-10.5 22.5q0 7 1 10q14 51 40 144.5t36 132.5l-105 267q-2 6 -2 9q0 10 7.5 20t18.5 13q3 1 9 1q22 0 33 -25v-1 q37 -94 70 -176q9 32 26.5 95t25.5 94q7 24 32 24q14 0 24.5 -9t10.5 -23q0 -7 -1 -10q-13 -46 -38.5 -138t-38.5 -138q19 -46 55.5 -138.5t54.5 -138.5z"/>
<glyph glyph-name="Y" horiz-adv-x="297" unicode="Y" d="M203 613q6 23 30 23q13 0 23.5 -8.5t10.5 -22.5q0 -2 -2 -10q-13 -44 -37.5 -130.5t-36.5 -130.5v-297q0 -14 -10 -22.5t-23 -8.5t-22.5 8.5t-9.5 22.5v259q-4 6 -5 10q-51 129 -90 289q-1 3 -1 9q0 14 10 23t24 9q23 0 29 -23q20 -80 55 -193q14 46 55 193z"/>
<glyph glyph-name="Z" horiz-adv-x="306" unicode="Z" d="M242 630q13 0 23.5 -10t10.5 -23q0 -3 -2 -9q-28 -87 -83 -260.5t-82 -260.5h88q16 0 24 -9.5t8 -23.5t-8.5 -24t-23.5 -10h-133q-13 0 -23.5 10.5t-10.5 23.5q0 5 1 8q27 87 82.5 260.5t82.5 260.5h-108q-16 0 -24 9.5t-8 23.5t8 24t24 10h154z"/>
<glyph glyph-name="bracketleft" horiz-adv-x="194" unicode="[" d="M142 55q22 0 22 -23q0 -24 -22 -24h-89q-9 0 -16 7t-7 16v129v465q0 9 7 16t16 7h89q22 0 22 -24q0 -23 -22 -23h-65v-105v-441h65z"/>
<glyph glyph-name="backslash" horiz-adv-x="262" unicode="\" d="M174 26q-90 370 -136 555q-1 5 -3.5 14t-3.5 13q-1 3 -1 8q0 13 10 21t22 8q20 0 26 -21q23 -92 68.5 -277.5t67.5 -277.5q1 -4 3.5 -13t3.5 -14q1 -3 1 -8q0 -13 -10 -20.5t-22 -7.5q-20 0 -26 20z"/>
<glyph glyph-name="bracketright" horiz-adv-x="194" unicode="]" d="M53 55h65v441v105h-65q-23 0 -23 23q0 24 23 24h88q10 0 16.5 -7t6.5 -16v-465v-129q0 -9 -6.5 -16t-16.5 -7h-88q-23 0 -23 24q0 23 23 23z"/>
<glyph glyph-name="asciicircum" unicode="^"/>
<glyph glyph-name="underscore" horiz-adv-x="376" unicode="_" d="M315 64h2q29 0 29 -31q0 -13 -8 -22.5t-23 -10.5h-83h-171q-14 0 -22.5 9.5t-8.5 22.5t8.5 22.5t22.5 9.5q25 0 83 -0.5t88 -0.5q58 0 83 1z"/>
<glyph glyph-name="grave" unicode="`"/>
<glyph glyph-name="a" unicode="a"/>
<glyph glyph-name="b" unicode="b"/>
<glyph glyph-name="c" unicode="c"/>
<glyph glyph-name="d" unicode="d"/>
<glyph glyph-name="e" unicode="e"/>
<glyph glyph-name="f" unicode="f"/>
<glyph glyph-name="g" unicode="g"/>
<glyph glyph-name="h" unicode="h"/>
<glyph glyph-name="i" unicode="i"/>
<glyph glyph-name="j" unicode="j"/>
<glyph glyph-name="k" unicode="k"/>
<glyph glyph-name="l" unicode="l"/>
<glyph glyph-name="m" unicode="m"/>
<glyph glyph-name="n" unicode="n"/>
<glyph glyph-name="o" unicode="o"/>
<glyph glyph-name="p" unicode="p"/>
<glyph glyph-name="q" unicode="q"/>
<glyph glyph-name="r" unicode="r"/>
<glyph glyph-name="s" unicode="s"/>
<glyph glyph-name="t" unicode="t"/>
<glyph glyph-name="u" unicode="u"/>
<glyph glyph-name="v" unicode="v"/>
<glyph glyph-name="w" unicode="w"/>
<glyph glyph-name="x" unicode="x"/>
<glyph glyph-name="y" unicode="y"/>
<glyph glyph-name="z" unicode="z"/>
<glyph glyph-name="braceleft" unicode="{"/>
<glyph glyph-name="bar" unicode="|"/>
<glyph glyph-name="braceright" unicode="}"/>
<glyph glyph-name="asciitilde" unicode="~"/>
<glyph glyph-name="uni00A0" unicode=" "/>
<glyph glyph-name="currency" unicode="¤"/>
<glyph glyph-name="brokenbar" unicode="¦"/>
<glyph glyph-name="section" unicode="§"/>
<glyph glyph-name="copyright" unicode="©"/>
<glyph glyph-name="guillemotleft" horiz-adv-x="338" unicode="«" d="M304 184q4 -8 4 -18q0 -17 -12.5 -28.5t-28.5 -11.5q-19 0 -29 19q-15 28 -44 84.5t-43 85.5q-4 7 -4 18q0 10 4.5 23.5t9.5 22.5t13.5 23.5t10.5 18.5q8 14 22.5 42.5t21.5 42.5q9 19 29 19q16 0 28.5 -11.5t12.5 -27.5q0 -10 -4 -18q-57 -112 -68 -134q25 -50 77 -150z M110 333q11 -22 33.5 -65.5t33.5 -65.5q4 -8 4 -18q0 -17 -12.5 -28.5t-28.5 -11.5q-20 0 -29 19q-13 25 -38.5 75.5t-38.5 75.5q-4 7 -4 17q0 9 4 21t8.5 20.5t12 21.5t9.5 17q7 13 20 38.5t19 38.5q9 19 30 19q16 0 28.5 -11.5t12.5 -27.5q0 -9 -5 -19 q-11 -22 -31.5 -62.5t-27.5 -53.5z"/>
<glyph glyph-name="logicalnot" unicode="¬"/>
<glyph glyph-name="uni00AD" unicode="­"/>
<glyph glyph-name="registered" unicode="®"/>
<glyph glyph-name="degree" unicode="°"/>
<glyph glyph-name="plusminus" unicode="±"/>
<glyph glyph-name="mu" unicode="µ"/>
<glyph glyph-name="paragraph" unicode="¶"/>
<glyph glyph-name="periodcentered" unicode="·"/>
<glyph glyph-name="guillemotright" horiz-adv-x="338" unicode="»" d="M228 333q-26 52 -59 116q-4 8 -4 18q0 17 12 28.5t28 11.5q21 0 30 -19q7 -13 20 -38.5t19 -38.5q2 -4 9.5 -17t12 -21.5t8.5 -20.5t4 -21q0 -10 -4 -17q-38 -76 -77 -151q-9 -19 -29 -19q-16 0 -28.5 11.5t-12.5 28.5q0 10 4 18q35 66 67 131zM35 184q13 25 38.5 75 t37.5 75q-11 22 -68 134q-4 8 -4 18q0 16 12.5 27.5t28.5 11.5q20 0 29 -19q7 -14 22 -42.5t22 -42.5q2 -4 10.5 -18.5t13.5 -23.5t9.5 -22.5t4.5 -23.5q0 -11 -4 -18q-72 -142 -86 -170q-9 -19 -30 -19q-16 0 -28.5 11.5t-12.5 27.5q0 9 5 19z"/>
<glyph glyph-name="Udieresis" horiz-adv-x="481" unicode="Ü"/>
<glyph glyph-name="thorn" horiz-adv-x="481" unicode="þ"/>
<glyph glyph-name="uni0401" horiz-adv-x="239" unicode="Ё" d="M162 673q-13 0 -23 9.5t-10 22.5t10 22.5t23 9.5h4q13 0 23 -9.5t10 -22.5t-10 -22.5t-23 -9.5h-4zM70 638q-14 0 -23.5 9.5t-9.5 22.5t9.5 22t23.5 9h4q14 0 23.5 -9t9.5 -22t-9.5 -22.5t-23.5 -9.5h-4zM177 67q16 0 24 -9t8 -22t-8.5 -22.5t-23.5 -9.5h-114 q-14 0 -23.5 9t-9.5 22v545q0 13 9.5 22.5t23.5 9.5h114q15 0 23.5 -9.5t8.5 -22.5t-8 -22t-24 -9h-81v-247h69q15 0 23 -9.5t8 -22.5t-8 -22t-23 -9h-69v-172h81z"/>
<glyph glyph-name="uni0402" unicode="Ђ"/>
<glyph glyph-name="uni0403" unicode="Ѓ"/>
<glyph glyph-name="uni0404" unicode="Є"/>
<glyph glyph-name="uni0405" unicode="Ѕ"/>
<glyph glyph-name="uni0406" unicode="І"/>
<glyph glyph-name="uni0407" unicode="Ї"/>
<glyph glyph-name="uni0408" unicode="Ј"/>
<glyph glyph-name="uni0409" unicode="Љ"/>
<glyph glyph-name="uni040A" unicode="Њ"/>
<glyph glyph-name="uni040B" unicode="Ћ"/>
<glyph glyph-name="uni040C" unicode="Ќ"/>
<glyph glyph-name="uni040E" unicode="Ў"/>
<glyph glyph-name="uni040F" unicode="Џ"/>
<glyph glyph-name="uni0410" horiz-adv-x="331" unicode="А" d="M115 258h98q-20 200 -30 301q-37 -104 -68 -301zM305 33q1 -15 -8 -23t-23 -8t-25.5 8t-12.5 23q-2 24 -7.5 77t-8.5 81h-115q-13 -88 -20 -158q-1 -15 -12.5 -23t-25.5 -8q-13 0 -22.5 7.5t-9.5 20.5q0 27 3.5 59t7 54.5t10 61t9.5 54.5q38 243 86 356q11 25 34 25h48 q31 0 35 -34z"/>
<glyph glyph-name="uni0411" horiz-adv-x="239" unicode="Б" d="M141 104q8 36 8 85q0 7 -0.5 20t-0.5 19q-2 62 -10 77q-8 13 -17 17q-13 5 -30 5v-257h3q39 0 47 34zM209 216q0 -60 -3 -89q-7 -53 -18 -73q-32 -51 -99 -51q-19 0 -29 2q-6 2 -8 3q-22 7 -22 32v556q0 14 9 24t21 10h91q14 0 22 -10t8 -24t-8 -24t-22 -10h-60v-166 q75 -4 99 -57q17 -37 19 -123z"/>
<glyph glyph-name="uni0412" horiz-adv-x="251" unicode="В" d="M146 91q3 15 3 33q0 27 -6 45q-6 21 -44 36v-135h12l9 2q10 3 12 4q12 6 14 15zM149 538q-1 26 -19 36q-15 6 -31 6v-295q33 8 47 70q6 31 6 77q0 34 -1 50q0 10 -1 28.5t-1 27.5zM208 191q6 -18 8 -57v-24q0 -25 -5 -41q-26 -68 -117 -68q-18 0 -34 3q-12 3 -18 10 q-12 10 -12 26v567q0 13 6 20q5 16 24 19q18 3 37 3q42 0 71 -18q24 -15 36 -43t13 -44t3 -57q1 -15 1 -48q0 -141 -56 -192q33 -22 43 -56z"/>
<glyph glyph-name="uni0413" horiz-adv-x="214" unicode="Г" d="M98 33q0 -15 -10 -23.5t-24 -8.5t-24 8.5t-10 23.5v561q0 14 10 24t24 10h112q16 0 24 -10t8 -24t-8 -24t-24 -10h-78v-527z"/>
<glyph glyph-name="uni0414" horiz-adv-x="375" unicode="Д" d="M149 260q-16 -126 -21 -193h102q-24 302 -37 454q-23 -91 -44 -261zM352 53q8 -10 8 -22q0 -7 -5 -15q-22 -28 -64 -86q-12 -17 -30 -17q-8 0 -16 5q-17 8 -17 30q0 10 5 16q8 12 26 36h-179q3 -11 10.5 -33t11.5 -33q2 -8 2 -10q0 -14 -10.5 -22.5t-24.5 -8.5 q-25 0 -32 23q-34 105 -35 108q-2 8 -2 11q0 13 9 21t22 9q8 2 11 2h18q6 70 22 199q31 238 68 346q9 25 32 25h38q14 0 23.5 -10t10.5 -24q7 -86 21.5 -265t22.5 -271h28q1 0 3 -0.5t3 -0.5q12 -1 20 -13z"/>
<glyph glyph-name="uni0415" horiz-adv-x="240" unicode="Е" d="M178 68q16 0 24 -10t8 -24t-8 -23.5t-24 -9.5h-115q-13 0 -23 10t-10 24v570q0 13 10 23t23 10h115q16 0 24 -10t8 -24t-8 -23.5t-24 -9.5h-82v-257h69q15 0 23.5 -10t8.5 -24t-8 -23.5t-24 -9.5h-69v-179h82z"/>
<glyph glyph-name="uni0416" horiz-adv-x="418" unicode="Ж" d="M320 606q6 25 31 25q14 0 25.5 -10t11.5 -25q0 -6 -1 -9q-41 -167 -114 -259q1 -1 4 -7l99 -282q2 -8 2 -12q0 -14 -10.5 -22t-24.5 -8q-25 0 -34 23q-11 30 -34 114t-34 114l5 -222q0 -16 -10 -24.5t-25 -8.5t-25 8.5t-10 24.5l4 223q-12 -32 -35 -115t-33 -111 q-9 -23 -34 -23q-14 0 -24.5 8t-10.5 21q0 4 2 12l99 282q0 2 2 4q-74 94 -115 260q-1 3 -1 9q0 15 11.5 25t25.5 10q25 0 31 -25q39 -153 78 -216v206q0 16 10.5 25t24.5 9t24.5 -9t10.5 -25v-200q37 61 74 210z"/>
<glyph glyph-name="uni0417" horiz-adv-x="287" unicode="З" d="M180 406q39 -30 58 -84.5t19 -112.5v-14q-3 -66 -32 -115q-49 -80 -152 -80q-15 0 -23 10.5t-8 23.5t8 22.5t22 9.5h1h4q68 0 95 55q10 22 14 43q2 6 4 18v1v3q1 3 1 9v10q0 24 -4 49t-12 51.5t-25.5 44t-40.5 20.5q-14 1 -23.5 12.5t-9.5 24.5q0 22 24 28 q26 6 47.5 33.5t21.5 54.5q0 4 -2 14q-2 13 -10 18q-7 5 -11 6q0 1 -1 1l-2 1l-4 1q-7 2 -15 0q-19 -3 -44 -15q-8 -3 -14 -3q-15 0 -25.5 11.5t-10.5 24.5q0 17 17 24q54 25 85 25q16 0 33 -6q56 -22 66 -70q3 -13 3 -28q0 -70 -54 -121z"/>
<glyph glyph-name="uni0418" horiz-adv-x="293" unicode="И" d="M197 618q6 24 32 24q14 0 24 -9t10 -24v-575q0 -15 -9.5 -23.5t-23.5 -8.5t-24 8.5t-10 23.5v341q-44 -147 -100 -341q-7 -23 -32 -23q-14 0 -24 8.5t-10 23.5v566q0 15 10 23.5t24 8.5t23.5 -8t9.5 -24v-332q16 57 49.5 170.5t50.5 170.5z"/>
<glyph glyph-name="uni0419" horiz-adv-x="301" unicode="Й" d="M192 668q-9 -9 -24 -9q-14 0 -25 9q-10 9 -10 23t10 24l66 69q9 10 24 10t25 -10q10 -9 10 -23q0 -13 -10 -23q-22 -24 -66 -70zM203 620q6 24 33 24q14 0 24.5 -9t10.5 -23v-580q0 -14 -10.5 -22.5t-24.5 -8.5t-24.5 8.5t-10.5 22.5v344q-58 -195 -103 -344 q-7 -23 -33 -23q-14 0 -24.5 8.5t-10.5 23.5v571q0 15 10 23.5t24 8.5t24.5 -8.5t10.5 -23.5v-335q18 57 52 171.5t52 171.5z"/>
<glyph glyph-name="uni041A" horiz-adv-x="336" unicode="К" d="M341 -70q25 -6 25 -31q0 -14 -10 -25.5t-25 -11.5q-6 0 -9 1q-50 13 -79 81q-22 51 -42 136q-2 8 -5.5 29t-6.5 36t-8.5 35.5t-12.5 35.5t-16.5 29.5t-22.5 23.5t-29 11v-253q0 -16 -10 -24t-25 -8t-25 8t-10 24v571q0 16 10.5 25t24.5 9t24.5 -9t10.5 -25v-188 q44 71 75 197q6 25 31 25q14 0 25.5 -9.5t11.5 -24.5q0 -6 -1 -9q-39 -154 -104 -246q51 -19 78 -73.5t44 -131.5q17 -85 34 -137q14 -36 26 -53q2 -4 12 -14l4 -2q2 -2 5 -2z"/>
<glyph glyph-name="uni041B" horiz-adv-x="274" unicode="Л" d="M269 52v-6q0 -30 -23 -35q-3 -1 -9 -1q-12 0 -22 6.5t-11 17.5q-13 96 -40 266q-15 94 -33 189q-2 8 -2 13l-57 -459q-4 -33 -33 -33q-13 0 -23.5 9t-10.5 21q0 81 11.5 175t30.5 208t26 174q5 33 34 33q3 0 11 0.5t12 0.5q16 0 26 -5q12 -8 19 -28q2 -6 13 -52 q17 -85 34 -192q18 -108 47 -302z"/>
<glyph glyph-name="uni041C" horiz-adv-x="348" unicode="М" d="M252 624q8 24 33 24q13 0 23 -9t10 -24v-581q0 -16 -10 -24t-24 -8t-24 8t-10 24v358q-22 -72 -40 -128q-8 -24 -32 -24q-26 0 -33 24l-23.5 70.5l-23.5 70.5v-374q0 -15 -10 -23.5t-24 -8.5t-24 8.5t-10 23.5v584q0 16 9.5 24.5t23.5 8.5q27 0 34 -24q26 -80 80 -240z "/>
<glyph glyph-name="uni041D" horiz-adv-x="273" unicode="Н" d="M175 600q0 16 10 24.5t24 8.5t24 -8.5t10 -24.5v-566q0 -16 -10 -24t-24 -8t-24 8t-10 24v249h-19q-30 0 -58 3v-252q0 -16 -10 -24t-24 -8t-24 8t-10 24v566q0 16 10 24.5t24 8.5t24 -8.5t10 -24.5v-245q25 -4 60 -4h17v249z"/>
<glyph glyph-name="uni041E" horiz-adv-x="268" unicode="О" d="M126 73q3 0 8 5q8 11 16 31q18 50 24 86q17 87 17 159q0 67 -15 130q-18 79 -52 96h-1l-5 -5q-11 -17 -20 -44q-18 -60 -18 -141q0 -32 4 -96q6 -90 14 -135q13 -65 26 -86h2zM252 447q6 -46 6 -95q0 -40 -2 -60q-8 -94 -21 -137q-2 -6 -7 -26t-8 -30t-10 -25.5 t-15 -26.5q-27 -39 -68 -39q-20 0 -44 11q-7 3 -17 15q-15 21 -29 82q-10 49 -17 117q-10 98 -10 152q0 16 2 48q6 84 26 134q29 71 72 79q4 1 12 1q52 0 89 -65q30 -51 41 -135z"/>
<glyph glyph-name="uni041F" horiz-adv-x="271" unicode="П" d="M207 628q14 0 24 -10t10 -24v-563q0 -16 -9.5 -24t-23.5 -8t-24 8.5t-10 23.5v529h-76v-529q0 -15 -10 -23.5t-24 -8.5t-24 8.5t-10 23.5v563q0 14 10 24t24 10h143z"/>
<glyph glyph-name="uni0420" horiz-adv-x="254" unicode="Р" d="M151 368q4 28 4 64q0 16 -2 50q0 17 -3 38q-4 23 -9 32q-9 12 -22 15q-11 3 -21 3v-254h1q4 -1 14 -1q15 0 21 7q11 11 17 46zM222 477q2 -38 2 -59q0 -62 -15 -99q-18 -46 -50 -62q-20 -10 -44 -10q-11 0 -17 1v-212q0 -16 -10 -24t-24 -8t-24 8t-10 24v569q0 21 19 30 q8 4 15 4q3 0 9 0.5t9 0.5q83 0 116 -51q20 -30 24 -112z"/>
<glyph glyph-name="uni0421" horiz-adv-x="283" unicode="С" d="M186 174q7 23 31 23q14 0 24.5 -8.5t10.5 -22.5q0 -6 -1 -10q-3 -9 -8 -28t-8 -30.5t-9.5 -27t-14.5 -26.5q-27 -39 -68 -39q-22 0 -42 10q-12 6 -17 16q-16 33 -27 77q-10 49 -17 117q-10 104 -10 161q0 27 1 41q5 70 19 117q17 63 44 85q23 19 46 19q36 0 65.5 -38.5 t44.5 -83.5q2 -8 2 -11q0 -13 -10.5 -21.5t-23.5 -8.5q-25 0 -32 23q-11 36 -27 55q-13 15 -18 18l1 1q-1 -1 -2 -1h1h-1q0 -1 -3 -4q-9 -12 -13 -23q-26 -66 -26 -152v-19q4 -103 11 -175q12 -105 32 -138h3q3 1 4 2q10 10 15 25q7 17 23 77z"/>
<glyph glyph-name="uni0422" horiz-adv-x="288" unicode="Т" d="M250 627q16 0 24.5 -10t8.5 -24t-8.5 -24t-24.5 -10h-64v-529q0 -16 -10 -24t-24 -8t-24 8t-10 24v529h-80q-16 0 -24 10t-8 24t8 24t24 10h212z"/>
<glyph glyph-name="uni0423" horiz-adv-x="330" unicode="У" d="M232 600q1 16 11.5 24.5t24.5 8.5q13 0 22.5 -8t9.5 -22q0 -100 -39 -266q-26 -120 -65 -197q-48 -98 -114 -130q-8 -3 -15 -3q-15 0 -26 11.5t-11 25.5q0 16 17 25q54 27 94 114q23 49 41 116q-10 2 -18 10q-87 97 -132 279q-1 3 -1 9q0 15 11 24.5t25 9.5q25 0 31 -25 q36 -153 102 -233q25 121 32 227z"/>
<glyph glyph-name="uni0424" horiz-adv-x="363" unicode="Ф" d="M281 280q7 25 7 56q0 3 -3 57v17v7q0 70 -20 97q-4 5 -20 14l-8 4h-7v-285q22 2 33 9q13 8 18 24zM113 278q10 -25 47 -29v280q-27 -5 -40.5 -25t-16 -39t-2.5 -52v-15v-27q0 -60 12 -93zM358 348q0 -88 -25 -121q-36 -47 -103 -50v-142q0 -16 -10.5 -24.5t-24.5 -8.5 q-15 0 -25 8.5t-10 24.5v143q-84 9 -110 67q-20 48 -20 145v19q0 54 8 87q17 65 71 90q24 12 51 15v23q0 16 10.5 25t24.5 9t24.5 -9t10.5 -25v-21q16 0 27 -4q17 -6 31 -14t24 -21.5t17.5 -23t12.5 -30.5t8 -30t4.5 -34.5t2 -31.5t1 -35t0.5 -31z"/>
<glyph glyph-name="uni0425" horiz-adv-x="345" unicode="Х" d="M323 47q2 -6 2 -9q0 -11 -8 -21t-19 -13q-3 -1 -8 -1q-24 0 -35 26q-13 31 -39.5 94t-39.5 95q-10 -32 -28.5 -96t-27.5 -96q-7 -24 -33 -24q-15 0 -26 8.5t-11 22.5q0 3 2 11l81 276q-18 45 -55 133t-56 133q-2 6 -2 9q0 11 8 21t18 13q4 1 10 1q23 0 33 -26 q13 -30 37.5 -89t37.5 -89q34 112 56 191q7 24 33 24q14 0 25.5 -9t11.5 -23q0 -3 -2 -11q-14 -46 -40.5 -137.5t-40.5 -137.5q19 -46 57.5 -138t58.5 -138z"/>
<glyph glyph-name="uni0426" horiz-adv-x="334" unicode="Ц" d="M303 0q2 -12 2 -17q0 -77 -145 -79h-1q-16 0 -25 9.5t-9 23.5t9.5 24t25.5 10q52 2 67 8q11 4 7 11q-6 9 -33 9h-4h-132q-14 0 -24.5 10t-10.5 23v577q0 15 10.5 23.5t25.5 8.5t25 -8t10 -24v-543h20h1q7 0 25 0.5t28 0.5q19 0 29 -1v548q0 16 10.5 24.5t24.5 8.5 q15 0 25 -8.5t10 -24.5v-569q24 -17 29 -45z"/>
<glyph glyph-name="uni0427" horiz-adv-x="263" unicode="Ч" d="M172 611q0 15 9 23.5t21 8.5t21.5 -8.5t9.5 -23.5v-575q0 -15 -9.5 -23.5t-21.5 -8.5t-21 8.5t-9 23.5v219q-34 0 -60.5 29t-43.5 74q-38 104 -38 247q0 15 9 23.5t21 8.5t21 -8.5t9 -23.5q2 -120 29 -206q14 -47 32 -67q12 -12 21 -11v290z"/>
<glyph glyph-name="uni0428" horiz-adv-x="403" unicode="Ш" d="M306 612q0 16 10 24.5t24 8.5t23.5 -8.5t9.5 -24.5v-578q0 -14 -10 -24q-8 -10 -23 -10h-276q-14 0 -24 10t-10 24v578q0 16 10 24.5t24 8.5t24 -8.5t10 -24.5v-544h70v544q0 16 10 24.5t24 8.5t23.5 -8.5t9.5 -24.5v-544h71v544z"/>
<glyph glyph-name="uni0429" horiz-adv-x="434" unicode="Щ" d="M403 54q26 -21 26 -58q0 -30 -19 -49q-28 -29 -99 -31q-7 0 -20 -0.5t-19 -0.5q-1 0 -124 3q-16 0 -24 9.5t-8 23.5q0 13 8 23t23 10h1q43 0 129 -2h23q36 0 57 8q1 0 5 4q2 6 -3 9q-11 6 -28 6h-268q-14 0 -23.5 10t-9.5 24v568q0 15 10 23.5t24 8.5t23.5 -8t9.5 -24 v-535h70v535q0 16 9.5 24t23.5 8t24 -8.5t10 -23.5v-535h25h1q13 0 43 2v533q0 16 9.5 24t23.5 8t24 -8.5t10 -23.5v-540q20 -7 33 -17z"/>
<glyph glyph-name="uni042A" horiz-adv-x="336" unicode="Ъ" d="M229 100q9 36 9 86q0 25 -1 38q-2 61 -11 77q-8 13 -19 17q-12 4 -35 6v-258q49 0 57 34zM306 212q0 -59 -4 -88q-7 -54 -20 -73q-35 -51 -110 -51q-22 0 -33 2q-5 0 -8 3q-27 4 -27 32v520h-41q-16 0 -24.5 10t-8.5 24t8.5 24t24.5 10h75q14 0 24 -10t10 -24v-199 q86 -4 112 -57q20 -39 22 -123z"/>
<glyph glyph-name="uni042B" horiz-adv-x="375" unicode="Ы" d="M276 601q0 16 10 25t24 9t24.5 -9t10.5 -25v-564q0 -16 -10 -24q-10 -10 -24 -10q-15 0 -25 10q-10 8 -10 24v564zM148 98q9 36 9 87q0 26 -1 39q0 5 -1 20.5t-1.5 23t-3 18t-6.5 17.5q-7 13 -19 17q-10 3 -26 5v-256q41 0 49 29zM204 338q19 -38 21 -126q0 -5 0.5 -15 t0.5 -15q0 -33 -4 -60q-7 -54 -21 -74q-34 -47 -105 -47q-20 0 -41 3q-25 4 -25 28v5v564q0 16 10 25t24 9t24.5 -9t10.5 -25v-207q79 -6 105 -56z"/>
<glyph glyph-name="uni042C" horiz-adv-x="252" unicode="Ь" d="M145 105q9 33 9 81q0 29 -1 43q-2 61 -11 77q-7 13 -19 17q-7 3 -25 5v-253q40 0 47 30zM222 217q0 -59 -4 -88q-7 -53 -20 -73q-35 -49 -107 -49q-18 0 -36 3q-10 3 -18 12q-7 10 -7 21v553q0 16 10 24.5t24 8.5t24 -8.5t10 -24.5v-200q77 -6 103 -56q19 -39 21 -123z "/>
<glyph glyph-name="uni042D" horiz-adv-x="325" unicode="Э" d="M253 609q42 -49 42 -143q0 -9 -0.5 -19.5t-1.5 -23.5t-1 -20q-6 -111 -28 -209q-9 -40 -15 -62t-22 -55t-37 -51q-27 -24 -60 -24q-47 0 -91 46q-9 10 -9 22q0 14 10.5 24.5t23.5 10.5q12 0 22 -10q8 -9 17 -17q13 -11 24 -12h4h3l1 1q4 2 5 3l3 2l8 9q11 16 18 31 q25 53 39 138q-74 -2 -113 -2h-1q-15 0 -23 9.5t-8 22.5t8.5 23.5t23.5 10.5q41 0 123 2q11 79 11 153q0 84 -35 104q-10 6 -24 6q-4 0 -14 -2q-26 -6 -57 -25q-10 -5 -16 -5q-13 0 -23 10.5t-10 24.5q0 17 16 27q55 35 108 35q50 0 79 -35z"/>
<glyph glyph-name="uni042E" horiz-adv-x="406" unicode="Ю" d="M294 183q17 90 17 165q0 67 -13 125q-18 83 -51 102q-1 0 -1 0.5t-1 0.5l-3 -3q-12 -18 -20 -45q-18 -60 -18 -144q0 -31 4 -97q6 -92 14 -136q11 -62 24 -85q4 -1 2 -2q4 1 6 4q9 9 17 31q14 42 23 84zM370 450q7 -48 7 -103q0 -19 -2 -55q-6 -92 -19 -141 q-3 -9 -8 -27.5t-8 -30t-9.5 -26.5t-13.5 -27q-27 -41 -69 -41q-21 0 -41 10q-11 6 -16 18q-16 23 -28 76q-10 49 -17 117q-4 37 -5 59q-6 -1 -19 -1q-16 0 -25 1v-243q0 -16 -9.5 -24t-23.5 -8t-24 8t-10 24v555q0 16 10 24.5t24 8.5t23.5 -8.5t9.5 -24.5v-244 q3 0 9.5 -0.5t10.5 -0.5h19q0 48 1 71q4 81 23 138q28 77 69 86q10 2 16 2q49 0 84 -61q28 -49 41 -132z"/>
<glyph glyph-name="uni042F" horiz-adv-x="296" unicode="Я" d="M145 489q-2 -32 -2 -49q0 -31 4 -55q9 -41 39 -41q7 0 11 1h3v215q-13 0 -28 -5q-13 -4 -16 -12q-4 -6 -5 -10q0 -1 -1.5 -6t-1.5 -8q-3 -12 -3 -30zM261 604q5 -8 5 -19v-550q0 -15 -10 -23t-23 -8t-23 8t-10 23v240q-18 -7 -31.5 -22.5t-22 -41t-13.5 -43.5t-10 -48.5 t-7 -38.5q-18 -79 -41 -131q-29 -62 -74 -73q-3 -1 -9 -1q-14 0 -22.5 10.5t-8.5 24.5q0 24 24 30q4 1 9 5q7 7 12 16q10 17 24 53q17 55 32 132q20 101 60 151q-20 16 -32 45q-14 38 -14 97q0 17 2 49q6 73 30 101q31 37 106 37h17q23 -1 30 -23z"/>
<glyph glyph-name="uni0430" horiz-adv-x="491" unicode="а"/>
<glyph glyph-name="uni0431" horiz-adv-x="491" unicode="б"/>
<glyph glyph-name="uni0432" horiz-adv-x="491" unicode="в"/>
<glyph glyph-name="uni0433" horiz-adv-x="491" unicode="г"/>
<glyph glyph-name="uni0434" horiz-adv-x="491" unicode="д"/>
<glyph glyph-name="uni0435" horiz-adv-x="491" unicode="е"/>
<glyph glyph-name="uni0436" horiz-adv-x="491" unicode="ж"/>
<glyph glyph-name="uni0437" horiz-adv-x="491" unicode="з"/>
<glyph glyph-name="uni0438" horiz-adv-x="491" unicode="и"/>
<glyph glyph-name="uni0439" horiz-adv-x="491" unicode="й"/>
<glyph glyph-name="uni043A" horiz-adv-x="491" unicode="к"/>
<glyph glyph-name="uni043B" horiz-adv-x="491" unicode="л"/>
<glyph glyph-name="uni043C" horiz-adv-x="491" unicode="м"/>
<glyph glyph-name="uni043D" horiz-adv-x="491" unicode="н"/>
<glyph glyph-name="uni043E" horiz-adv-x="491" unicode="о"/>
<glyph glyph-name="uni043F" horiz-adv-x="491" unicode="п"/>
<glyph glyph-name="uni0440" horiz-adv-x="491" unicode="р"/>
<glyph glyph-name="uni0441" horiz-adv-x="491" unicode="с"/>
<glyph glyph-name="uni0442" horiz-adv-x="491" unicode="т"/>
<glyph glyph-name="uni0443" horiz-adv-x="491" unicode="у"/>
<glyph glyph-name="uni0444" horiz-adv-x="491" unicode="ф"/>
<glyph glyph-name="uni0445" horiz-adv-x="491" unicode="х"/>
<glyph glyph-name="uni0446" horiz-adv-x="491" unicode="ц"/>
<glyph glyph-name="uni0447" horiz-adv-x="491" unicode="ч"/>
<glyph glyph-name="uni0448" horiz-adv-x="491" unicode="ш"/>
<glyph glyph-name="uni0449" horiz-adv-x="491" unicode="щ"/>
<glyph glyph-name="uni044A" horiz-adv-x="491" unicode="ъ"/>
<glyph glyph-name="uni044B" horiz-adv-x="491" unicode="ы"/>
<glyph glyph-name="uni044C" horiz-adv-x="491" unicode="ь"/>
<glyph glyph-name="uni044D" horiz-adv-x="491" unicode="э"/>
<glyph glyph-name="uni044E" horiz-adv-x="491" unicode="ю"/>
<glyph glyph-name="uni044F" horiz-adv-x="491" unicode="я"/>
<glyph glyph-name="uni0451" unicode="ё"/>
<glyph glyph-name="uni0452" unicode="ђ"/>
<glyph glyph-name="uni0453" unicode="ѓ"/>
<glyph glyph-name="uni0454" unicode="є"/>
<glyph glyph-name="uni0455" unicode="ѕ"/>
<glyph glyph-name="uni0456" unicode="і"/>
<glyph glyph-name="uni0457" unicode="ї"/>
<glyph glyph-name="uni0458" unicode="ј"/>
<glyph glyph-name="uni0459" unicode="љ"/>
<glyph glyph-name="uni045A" unicode="њ"/>
<glyph glyph-name="uni045B" unicode="ћ"/>
<glyph glyph-name="uni045C" unicode="ќ"/>
<glyph glyph-name="uni045E" unicode="ў"/>
<glyph glyph-name="uni045F" unicode="џ"/>
<glyph glyph-name="uni0490" unicode="Ґ"/>
<glyph glyph-name="uni0491" unicode="ґ"/>
</font>
</defs>
</svg>
